<?xml version="1.0" encoding="UTF-8"?>
<svg xmlns="http://www.w3.org/2000/svg" xmlns:xlink="http://www.w3.org/1999/xlink" width="22px" height="22px" viewBox="0 0 22 22" version="1.1">
<g id="surface1">
<rect x="0" y="0" width="22" height="22" style="fill:rgb(100%,100%,100%);fill-opacity:0.0117647;stroke:none;"/>
<path style="fill-rule:nonzero;fill:rgb(18.431373%,53.333333%,100%);fill-opacity:1;stroke-width:4;stroke-linecap:butt;stroke-linejoin:round;stroke:rgb(0%,0%,0%);stroke-opacity:1;stroke-miterlimit:4;" d="M 33.051136 6.997159 L 38.002841 6.997159 C 39.102273 6.997159 39.997159 7.892045 39.997159 9 L 39.997159 42 C 39.997159 43.107955 39.102273 44.002841 38.002841 44.002841 L 9.997159 44.002841 C 8.897727 44.002841 8.002841 43.107955 8.002841 42 L 8.002841 9 C 8.002841 7.892045 8.897727 6.997159 9.997159 6.997159 L 17.002841 6.997159 L 17.002841 9.997159 L 30.997159 9.997159 L 30.997159 6.997159 Z M 33.051136 6.997159 " transform="matrix(0.458333,0,0,0.458333,0,0)"/>
<path style="fill:none;stroke-width:4;stroke-linecap:round;stroke-linejoin:round;stroke:rgb(0%,0%,0%);stroke-opacity:1;stroke-miterlimit:4;" d="M 17.002841 3.997159 L 30.997159 3.997159 L 30.997159 9.997159 L 17.002841 9.997159 Z M 17.002841 3.997159 " transform="matrix(0.458333,0,0,0.458333,0,0)"/>
<path style="fill:none;stroke-width:4;stroke-linecap:round;stroke-linejoin:round;stroke:rgb(100%,100%,100%);stroke-opacity:1;stroke-miterlimit:4;" d="M 27 18.997159 L 18.997159 27 L 29.002841 27 L 21 35.002841 " transform="matrix(0.458333,0,0,0.458333,0,0)"/>
</g>
</svg>
